<?xml version="1.0" encoding="utf-8"?>
<!-- Generator: Adobe Illustrator 23.1.0, SVG Export Plug-In . SVG Version: 6.00 Build 0)  -->
<svg version="1.1" id="Layer_1" xmlns="http://www.w3.org/2000/svg" xmlns:xlink="http://www.w3.org/1999/xlink" x="0px" y="0px"
	 viewBox="0 0 118.69 141.73" style="enable-background:new 0 0 118.69 141.73;" xml:space="preserve">
<style type="text/css">
	.st0{fill:url(#XMLID_2_);}
	.st1{fill:#FFFFFF;}
</style>
<linearGradient id="XMLID_2_" gradientUnits="userSpaceOnUse" x1="59.8646" y1="0.174" x2="59.8646" y2="141.7091">
	<stop  offset="0" style="stop-color:#3CBFEF"/>
	<stop  offset="1" style="stop-color:#4471B7"/>
</linearGradient>
<polygon id="XMLID_27_" class="st0" points="119.46,141.71 59.86,110.85 0.27,141.71 0.27,0.17 119.46,0.17 "/>
<path id="XMLID_12_" class="st1" d="M88.02,40.89c-1.82,0.72-3.76,1.23-5.72,1.53c1.86-1.67,3.39-3.75,4.41-6.01
	c-2.01,1.42-4.38,2.31-6.81,2.62c-2.19-2.26-5.26-3.67-8.66-3.67c-6.66,0-12.07,5.4-12.07,12.07c0,0.67,0.07,1.32,0.17,1.96
	c-9.6,0.29-19.25-4.55-24.67-12.5c-1.15,2.65-1.29,5.49-0.68,8.31c0.62,2.82,2.14,5.43,4.29,7.35c-1.87-0.07-3.76-0.68-5.28-1.77
	c0.15,2.87,1.09,5.79,2.9,8.02c1.81,2.23,4.34,3.87,7.12,4.6c-2.12,0.51-4.27,0.75-6.43,0.44c2.75,3.93,7.01,6.75,11.68,7.83
	c-3.19,4.22-11.59,5.35-16.58,4.79c12.73,11.03,51.6,6.13,51.6-29.02c0-0.41-0.02-0.81-0.06-1.2
	C85.01,44.61,86.62,42.82,88.02,40.89z"/>
</svg>
