<?xml version="1.0" encoding="utf-8"?>
<!-- Generator: Adobe Illustrator 24.3.0, SVG Export Plug-In . SVG Version: 6.00 Build 0)  -->
<svg version="1.1" id="Layer_1" xmlns="http://www.w3.org/2000/svg" xmlns:xlink="http://www.w3.org/1999/xlink" x="0px" y="0px"
	 viewBox="0 0 118.7 141.7" style="enable-background:new 0 0 118.7 141.7;" xml:space="preserve">
<style type="text/css">
	.st0{fill:url(#XMLID_2_);}
	.st1{clip-path:url(#SVGID_2_);}
	.st2{fill:none;}
	.st3{fill-rule:evenodd;clip-rule:evenodd;fill:#FFFFFF;}
</style>
<linearGradient id="XMLID_2_" gradientUnits="userSpaceOnUse" x1="59.58" y1="143.73" x2="59.58" y2="2.39" gradientTransform="matrix(1 0 0 -1 0 144)">
	<stop  offset="0" style="stop-color:#636363"/>
	<stop  offset="1" style="stop-color:#414141"/>
</linearGradient>
<polygon id="XMLID_24_" class="st0" points="119.1,141.6 59.6,110.8 0.1,141.6 0.1,0.3 119.1,0.3 "/>
<g>
	<defs>
		<rect id="SVGID_1_" x="18.6" y="19" width="82" height="82"/>
	</defs>
	<clipPath id="SVGID_2_">
		<use xlink:href="#SVGID_1_"  style="overflow:visible;"/>
	</clipPath>
	<g id="Messages" class="st1">
		<rect id="Rectangle_117" x="18.6" y="19" class="st2" width="82" height="82"/>
		<path id="Path_50" class="st3" d="M90.3,39.5H28.8l30.8,25.6L90.3,39.5z M18.6,39.5c0-5.7,4.6-10.2,10.3-10.3h61.5
			c5.7,0,10.2,4.6,10.3,10.3v41c0,5.7-4.6,10.2-10.3,10.3H28.8c-5.7,0-10.2-4.6-10.3-10.3V39.5z"/>
	</g>
</g>
</svg>
